<svg width="375" height="522" fill="none" xmlns="http://www.w3.org/2000/svg"><g filter="url(#a)"><path fill-rule="evenodd" clip-rule="evenodd" d="M42.1-124.246c-3.044 1.639-6.556 6.088-7.727 9.834-.731 2.488-1.92 6.347-3.109 10.207v.002a2104.47 2104.47 0 0 0-2.042 6.65C24.305-82.567 32.5-57.748 46.783-44.167c3.981 3.746 7.025 8.195 7.025 10.069 0 1.873 2.341 7.258 4.917 12.175 4.449 7.727 4.683 10.069 2.342 16.625-5.386 15.922-.703 26.927 10.536 24.117 4.45-1.17 7.727.469 14.986 7.025 5.151 4.683 10.77 8.43 12.644 8.43 4.215 0 10.771-6.323 10.771-10.303 0-1.874 1.639-4.45 3.512-6.088 2.576-2.108 3.512-7.727 3.278-21.308-.234-16.156-.936-19.668-5.854-25.288-3.044-3.746-5.619-8.43-5.619-10.537 0-5.151-6.088-17.093-10.069-19.434-1.639-.937-4.683-4.683-7.024-8.43-2.342-3.512-8.195-7.96-13.347-10.068l-9.131-3.746 1.404-11.005c1.64-13.581-2.341-26.928-9.365-31.845-6.088-4.215-8.196-4.215-15.689-.468zM20.137 2.74c-1.873 1.873-3.98 5.385-4.917 7.727-1.17 3.98-18.966 20.137-44.254 40.742-4.449 3.746-10.537 6.556-13.815 6.556-7.961 0-11.005 4.683-12.644 19.669-1.17 10.537-.468 14.283 3.746 21.307 2.576 4.683 4.917 11.942 4.917 16.391 0 10.771 9.6 18.498 21.308 16.859 4.449-.469 11.942.468 16.156 2.341 10.771 4.449 26.694 4.449 33.718 0 3.044-2.107 6.322-7.258 7.259-11.473 1.639-7.025 1.873-7.259 4.917-3.044 1.873 2.341 3.278 9.834 3.278 16.39 0 6.557 1.405 14.049 3.278 16.391 2.81 3.98 4.215 4.215 15.454 1.639 6.556-1.639 15.688-2.81 20.137-2.81 9.6 0 17.327-6.79 17.327-15.22 0-3.044-1.64-10.068-3.98-15.454-3.513-9.131-3.513-10.068.468-17.561 2.107-4.214 8.195-11.005 13.112-14.985 7.727-6.088 9.132-8.664 9.132-16.157 0-12.41-4.917-16.156-14.752-11.941-9.834 4.214-50.81 3.98-53.386-.469-1.17-1.873.469-6.79 3.747-12.878 8.663-14.517 7.726-21.307-3.981-32.78C37.464 5.55 28.332-.773 24.82-.773c-.468 0-2.575 1.639-4.683 3.512zm450.778 334.584c22.537-10.031 32.101-6.142 30.585 12.975-.825 12.515-8.677 33.429-14.068 38.265-2.647 2.287-8.949 3.202-14.304 2.385-5.256-1.079-10.121-.818-10.612.489-.393 1.046.419 7.614 2.112 14.215s2.21 13.954 1.229 16.568c-6.478 17.254-51.505 61.792-72.181 71.627-7.643 3.692-14.144 7.515-14.733 9.084-.49 1.307-6.5 3.823-13.358 5.424-9.177 2.221-14.368 1.764-19.623-1.7-6.038-3.759-9.499-3.268-23.773 3.005-16.168 7.352-23.319 7.352-28.962.162-7.405-9.64 16.192-40.748 35.592-47.185 7.153-2.385 13.816-5.849 14.405-7.417 1.767-4.706-7.722-22.287-13.467-24.444-10.185-3.824-33.498-3.629-41.599.489-4.769 2.385-12.475 3.071-19.397 1.665-3.446-.804-8.074-1.785-12.549-2.733-3.706-.785-7.306-1.547-10.042-2.169-7.444-1.602-17.109-.459-29.716 3.756-9.929 3.431-20.51 5.424-23.382 4.346-2.873-1.079-7.216-.622-9.731.522-2.352 1.503-9.275 2.483-14.924 2.45-5.811-.392-16.979.784-25.339 2.417l-14.859 3.071-22.257-16.111c-29.306-21.143-45.52-40.653-59.864-72.285-6.52-14.379-17.279-35.718-24.062-47.809-9.326-17.222-11.215-23.3-9.056-29.051 1.473-3.921 1.61-12.222.08-18.463-2.28-9.803-3.813-11.274-12.366-13.889-12.405-3.464-26.987-21.764-31.285-38.888-2.376-9.542-1.556-14.901 2.5-24.116 8.568-18.854 12.682-17.907 52.169 11.832 2.741 2.222 6.236.85 11.823-4.509 4.313-4.346 12.316-8.202 17.998-9.051 5.943-.752 11.986-4.15 15.418-8.528 4.085-5.327 9.475-7.777 21.1-9.378 8.784-1.176 18.319-1.176 21.452.001 9.761 3.366 24.56-7.482 29.958-21.86 8.834-23.528 11.347-66.728 4.466-78.558-2.152-3.79-1.136-9.672 3.281-21.436 4.514-12.025 5.729-20.816 4.954-33.037-1.325-18.692 1.818-29.443 12.209-40.455 9.934-10.587 30.242-8.332 33.4 3.89.749 3.562 3.651 8.53 6.196 11.274 6.688 7.582 46.578 21.962 62.447 22.55 11.558.164 14.17 1.145 19.259 6.635 7.537 8.496 20.917 18.888 27.184 21.242 2.873 1.078 6.984 4.411 9.072 7.581 5.023 7.255 7.906 38.462 6.416 66.238-1.458 29.28.658 38.724 11.98 49.835 9.462 8.921 14.743 21.045 12.191 27.842-.687 1.83 2.799 12.385 7.493 23.691 10.333 23.267 10.328 30.424.265 39.769l-.476.45c-9.235 8.732-9.342 8.834-.585 20.627 4.273 6.079 7.533 13.268 7.498 16.536-.296 3.169 2.606 8.137 6.196 11.274 10.018 8.235 7.692 18.398-5.996 27.874-9.604 6.535-11.304 9.476-13.728 19.9-2.163 10.522-3.667 12.94-9.775 15.718-9.341 4.247-21.713-.099-25.168-9.151-4.921-12.287-9.981-13.889-25.333-7.125-8.165 3.496-15.319 8.267-16.203 10.62-2.257 6.012 8.217 16.208 28.877 27.842 9.857 5.491 21.312 13.072 25.489 17.026 3.915 3.857 8.288 7.288 9.594 7.778 3.917 1.471 20.451-15.586 23.985-24.997 4.612-12.287 14.213-14.051 21.259-4.248 8.318 11.177 15.665 10.654 26.645-1.926 5.262-6.078 12.42-15.62 15.624-20.979 4.348-7.614 7.974-10.13 16.334-11.763 5.78-1.111 16.591-4.509 24.038-7.679z" fill="url(#b)"/></g><defs><radialGradient id="b" cx="0" cy="0" r="1" gradientUnits="userSpaceOnUse" gradientTransform="rotate(137.828 146.516 84.016) scale(458.514 542.834)"><stop stop-color="#FF912C"/><stop offset=".372" stop-color="#FF710A"/><stop offset="1" stop-color="#BC4705"/></radialGradient><filter id="a" x="-60" y="-129" width="565.655" height="650.195" filterUnits="userSpaceOnUse" color-interpolation-filters="sRGB"><feFlood flood-opacity="0" result="BackgroundImageFix"/><feColorMatrix in="SourceAlpha" values="0 0 0 0 0 0 0 0 0 0 0 0 0 0 0 0 0 0 127 0" result="hardAlpha"/><feOffset dy="2"/><feGaussianBlur stdDeviation="2"/><feColorMatrix values="0 0 0 0 0.758333 0 0 0 0 0.809921 0 0 0 0 0.8125 0 0 0 0.4 0"/><feBlend mode="multiply" in2="BackgroundImageFix" result="effect1_dropShadow_13_30"/><feBlend in="SourceGraphic" in2="effect1_dropShadow_13_30" result="shape"/></filter></defs></svg>